<svg width="312" height="313" viewBox="0 0 312 313" fill="none" xmlns="http://www.w3.org/2000/svg">
<ellipse cx="156" cy="156.5" rx="156" ry="156.5" fill="#238781"/>
<path fill-rule="evenodd" clip-rule="evenodd" d="M120.82 75.6045C121.82 70.16 124.32 69.1599 124.32 69.1599C128.32 66.16 137.82 67.16 146.431 67.16H167.208C172.719 67.16 183.82 66.6602 187.901 69.4409C187.901 69.4409 191.32 71.66 191.32 75.6045V117.493H229.542C235.052 117.493 235.337 116.753 239.234 120.774C243.13 124.796 242.32 134.25 242.32 139.938V161.382C242.32 167.07 243.13 180.524 239.234 184.546C235.337 188.567 232.83 188.16 227.32 188.16H190.82V228.16C190.82 233.848 185.797 236.857 181.901 240.879C178.004 244.901 172.719 247.16 167.208 247.16H146.431C140.92 247.16 135.635 244.901 131.739 240.879C127.842 236.857 121.32 232.348 121.32 226.66V188.16H84.3195C78.8089 188.16 76.2161 189.182 72.3195 185.16C68.8195 180.66 70.3195 167.07 70.3195 161.382V139.938C70.3195 134.25 69.3195 127.16 72.3195 122.16C76.2161 118.139 78.5867 118.493 84.0973 118.493H120.82V75.6045Z" fill="white"/>
<path d="M5 196H307C307 196 299.5 230 278 254C278 254 142.137 257.39 36.5 257C24 243 22 239 14 221.5C14 221.5 11 215 9 209C9 209 7.5 205.5 5 196Z" fill="white"/>
<g filter="url(#filter0_d_284_1543)">
<path d="M70 153.5C100.074 153.5 112.483 153.5 116.45 153.5C117.364 153.5 118.159 152.881 118.385 151.997L122.762 134.929C122.902 134.382 123.395 134 123.959 134V134C124.56 134 125.074 134.433 125.176 135.026L130.364 165.212C130.443 165.667 130.838 166 131.3 166V166C131.716 166 132.084 165.729 132.207 165.331L148.865 111.438C148.945 111.177 149.186 111 149.458 111V111C149.768 111 150.031 111.229 150.073 111.537L161.426 194.959C161.469 195.269 161.733 195.5 162.046 195.5V195.5C162.317 195.5 162.557 195.325 162.64 195.068L180 141.5C180 140.5 180.7 138.8 181.5 140C182.263 141.144 184.905 159.96 186.305 170.52C186.418 171.37 187.142 172 188 172V172V172C188.869 172 189.614 171.38 189.772 170.525L192.698 154.638C192.873 153.689 193.7 153 194.665 153H242" stroke="#238781" stroke-width="6"/>
</g>
<path d="M94.48 231.936C94.48 233.515 94.16 234.944 93.52 236.224C92.88 237.483 91.8987 238.485 90.576 239.232C89.2747 239.957 87.6107 240.32 85.584 240.32C82.7467 240.32 80.5813 239.552 79.088 238.016C77.616 236.459 76.88 234.411 76.88 231.872V217.152H79.76V231.968C79.76 233.824 80.2507 235.264 81.232 236.288C82.2347 237.312 83.7387 237.824 85.744 237.824C87.1307 237.824 88.2507 237.579 89.104 237.088C89.9787 236.576 90.6187 235.883 91.024 235.008C91.4293 234.112 91.632 233.088 91.632 231.936V217.152H94.48V231.936ZM113.822 240H97.9823V237.824L110.014 219.712H98.3663V217.152H113.502V219.328L101.47 237.44H113.822V240ZM117.543 240V217.152H120.423V237.44H130.407V240H117.543ZM148.02 240L145.268 232.928H136.212L133.492 240H130.58L139.508 217.056H142.1L150.996 240H148.02ZM141.844 223.456C141.78 223.285 141.673 222.976 141.524 222.528C141.375 222.08 141.225 221.621 141.076 221.152C140.948 220.661 140.841 220.288 140.756 220.032C140.649 220.459 140.532 220.896 140.404 221.344C140.297 221.771 140.18 222.165 140.052 222.528C139.945 222.891 139.849 223.2 139.764 223.456L137.172 230.368H144.404L141.844 223.456ZM160.01 217.152C161.908 217.152 163.498 217.333 164.778 217.696C166.079 218.059 167.05 218.656 167.69 219.488C168.351 220.32 168.682 221.429 168.682 222.816C168.682 223.712 168.511 224.512 168.17 225.216C167.85 225.899 167.359 226.475 166.698 226.944C166.058 227.392 165.268 227.701 164.33 227.872V228.032C165.29 228.181 166.154 228.459 166.922 228.864C167.711 229.269 168.33 229.845 168.778 230.592C169.226 231.339 169.45 232.309 169.45 233.504C169.45 234.891 169.13 236.075 168.49 237.056C167.85 238.016 166.932 238.752 165.738 239.264C164.564 239.755 163.156 240 161.514 240H153.482V217.152H160.01ZM160.586 226.88C162.548 226.88 163.892 226.571 164.618 225.952C165.343 225.312 165.706 224.373 165.706 223.136C165.706 221.877 165.258 220.981 164.362 220.448C163.487 219.893 162.079 219.616 160.138 219.616H156.362V226.88H160.586ZM156.362 229.28V237.568H160.97C162.996 237.568 164.404 237.173 165.194 236.384C165.983 235.595 166.378 234.56 166.378 233.28C166.378 232.469 166.196 231.765 165.834 231.168C165.492 230.571 164.906 230.112 164.074 229.792C163.263 229.451 162.154 229.28 160.746 229.28H156.362ZM186.614 233.888C186.614 235.253 186.283 236.416 185.622 237.376C184.961 238.315 184.011 239.04 182.774 239.552C181.558 240.064 180.118 240.32 178.454 240.32C177.601 240.32 176.779 240.277 175.99 240.192C175.222 240.107 174.518 239.989 173.878 239.84C173.238 239.669 172.673 239.467 172.182 239.232V236.48C172.95 236.821 173.899 237.131 175.03 237.408C176.182 237.685 177.366 237.824 178.582 237.824C179.713 237.824 180.662 237.675 181.43 237.376C182.198 237.077 182.774 236.651 183.158 236.096C183.542 235.541 183.734 234.891 183.734 234.144C183.734 233.397 183.574 232.768 183.254 232.256C182.934 231.744 182.379 231.275 181.59 230.848C180.822 230.4 179.745 229.931 178.358 229.44C177.377 229.077 176.513 228.693 175.766 228.288C175.041 227.861 174.433 227.381 173.942 226.848C173.451 226.315 173.078 225.707 172.822 225.024C172.587 224.341 172.47 223.552 172.47 222.656C172.47 221.44 172.779 220.405 173.398 219.552C174.017 218.677 174.87 218.005 175.958 217.536C177.067 217.067 178.337 216.832 179.766 216.832C181.025 216.832 182.177 216.949 183.222 217.184C184.267 217.419 185.217 217.728 186.07 218.112L185.174 220.576C184.385 220.235 183.521 219.947 182.582 219.712C181.665 219.477 180.705 219.36 179.702 219.36C178.742 219.36 177.942 219.499 177.302 219.776C176.662 220.053 176.182 220.448 175.862 220.96C175.542 221.451 175.382 222.027 175.382 222.688C175.382 223.456 175.542 224.096 175.862 224.608C176.182 225.12 176.705 225.579 177.43 225.984C178.155 226.389 179.137 226.827 180.374 227.296C181.718 227.787 182.849 228.32 183.766 228.896C184.705 229.451 185.409 230.123 185.878 230.912C186.369 231.701 186.614 232.693 186.614 233.888ZM193.137 240.224C192.603 240.224 192.145 240.075 191.761 239.776C191.398 239.456 191.217 238.901 191.217 238.112C191.217 237.323 191.398 236.779 191.761 236.48C192.145 236.181 192.603 236.032 193.137 236.032C193.649 236.032 194.086 236.181 194.449 236.48C194.833 236.779 195.025 237.323 195.025 238.112C195.025 238.901 194.833 239.456 194.449 239.776C194.086 240.075 193.649 240.224 193.137 240.224ZM216.875 231.936C216.875 233.515 216.555 234.944 215.915 236.224C215.275 237.483 214.294 238.485 212.971 239.232C211.67 239.957 210.006 240.32 207.979 240.32C205.142 240.32 202.976 239.552 201.483 238.016C200.011 236.459 199.275 234.411 199.275 231.872V217.152H202.155V231.968C202.155 233.824 202.646 235.264 203.627 236.288C204.63 237.312 206.134 237.824 208.139 237.824C209.526 237.824 210.646 237.579 211.499 237.088C212.374 236.576 213.014 235.883 213.419 235.008C213.824 234.112 214.027 233.088 214.027 231.936V217.152H216.875V231.936ZM236.217 240H220.377V237.824L232.409 219.712H220.761V217.152H235.897V219.328L223.865 237.44H236.217V240Z" fill="#238781"/>
<defs>
<filter id="filter0_d_284_1543" x="60" y="98" width="192" height="110.5" filterUnits="userSpaceOnUse" color-interpolation-filters="sRGB">
<feFlood flood-opacity="0" result="BackgroundImageFix"/>
<feColorMatrix in="SourceAlpha" type="matrix" values="0 0 0 0 0 0 0 0 0 0 0 0 0 0 0 0 0 0 127 0" result="hardAlpha"/>
<feOffset/>
<feGaussianBlur stdDeviation="5"/>
<feComposite in2="hardAlpha" operator="out"/>
<feColorMatrix type="matrix" values="0 0 0 0 0 0 0 0 0 0 0 0 0 0 0 0 0 0 0.25 0"/>
<feBlend mode="normal" in2="BackgroundImageFix" result="effect1_dropShadow_284_1543"/>
<feBlend mode="normal" in="SourceGraphic" in2="effect1_dropShadow_284_1543" result="shape"/>
</filter>
</defs>
</svg>
